<svg width="31" height="28" viewBox="0 0 31 28" fill="none" xmlns="http://www.w3.org/2000/svg">
<g clip-path="url(#clip0)">
<path d="M4.48608 24.7287H22.3538L21.5005 22.1562L23.5418 23.7872L25.4126 25.3482L28.821 28V2.8875C28.7358 1.3265 27.2922 0 25.5028 0L4.49234 0.0035C2.70419 0.0035 1.25311 1.33233 1.25311 2.89333V21.84C1.25311 23.4862 2.70168 24.7287 4.48608 24.7287ZM17.7036 6.63017L17.6623 6.64417L17.6773 6.63017H17.7036ZM8.14133 8.11067C10.4382 6.55433 12.5672 6.629 12.5672 6.629L12.7389 6.7865C9.92823 7.41067 8.65384 8.57967 8.65384 8.57967C8.65384 8.57967 8.99468 8.4245 9.5899 8.18767C13.3755 6.80167 17.5094 6.902 21.3363 8.65667C21.3363 8.65667 20.0594 7.5635 17.4217 6.8635L17.6548 6.65C18.0194 6.65117 19.9492 6.71417 22.0142 8.12C22.0142 8.12 24.3249 11.795 24.3249 16.31C24.2485 16.2237 22.8914 18.2537 19.3991 18.3237C19.3991 18.3237 18.8076 17.7007 18.3866 17.157C20.4291 16.611 21.1935 15.519 21.1935 15.519C20.5231 15.9122 19.9116 16.1455 19.4153 16.3788C18.6522 16.6915 17.8878 16.8455 17.1247 17.003C13.5108 17.549 11.4821 16.6355 9.56483 15.911L8.90947 15.6007C8.90947 15.6007 9.6726 16.6927 11.6337 17.2387C11.1187 17.7858 10.6087 18.4077 10.6087 18.4077C7.11756 18.3307 5.84442 16.3007 5.84442 16.3007C5.84442 11.7787 8.14133 8.11067 8.14133 8.11067Z" fill="#050914"/>
<path d="M17.9292 14.8994C18.8201 14.8994 19.5456 14.1994 19.5456 13.3361C19.5456 12.4786 18.8239 11.7786 17.9292 11.7786V11.7821C17.042 11.7821 16.3152 12.4797 16.3127 13.3431C16.3127 14.1994 17.0382 14.8994 17.9292 14.8994Z" fill="#050914"/>
<path d="M12.1424 14.8994C13.0334 14.8994 13.7589 14.1994 13.7589 13.3361C13.7589 12.4786 13.0384 11.7786 12.1474 11.7786L12.1424 11.7821C11.2515 11.7821 10.5259 12.4797 10.5259 13.3431C10.5259 14.1994 11.2515 14.8994 12.1424 14.8994Z" fill="#050914"/>
</g>
<defs>
<clipPath id="clip0">
<rect width="30.0741" height="28" fill="white"/>
</clipPath>
</defs>
</svg>
