<svg width="30" height="28" viewBox="0 0 30 28" fill="none" xmlns="http://www.w3.org/2000/svg">
<g clip-path="url(#clip0)">
<path d="M11.192 25.4867C9.89475 25.4867 8.55946 25.3886 7.21616 25.1921C4.85022 24.8456 2.45521 23.6906 1.77749 23.3447L0 22.4377L1.92443 21.847C4.02808 21.2014 5.30775 20.8009 6.89183 20.1737C5.30569 19.4568 4.08324 18.1671 3.49478 16.5L3.04709 15.2315L3.41422 15.2838C3.06609 14.9564 2.7912 14.624 2.57811 14.3217C1.82029 13.2474 1.41906 11.9347 1.50443 10.8097L1.58866 9.70251L2.29888 9.95929C1.99927 9.43121 1.78275 8.86725 1.6555 8.27615C1.34536 6.83462 1.60491 5.30316 2.38654 3.96396L3.00521 2.90396L3.83261 3.83151C6.44941 6.76541 9.76383 8.5058 13.6976 9.01529C13.5369 7.98157 13.6573 6.98395 14.0558 6.08972C14.5197 5.04852 15.3451 4.16562 16.4419 3.53628C17.66 2.83752 19.1372 2.49893 20.6013 2.58288C22.1548 2.67197 23.5651 3.21521 24.6853 4.15494C25.2323 4.02228 25.6354 3.88064 26.1801 3.68924C26.5078 3.5741 26.8795 3.44336 27.3446 3.29382L29.0585 2.74267L27.9409 5.72186C28.0146 5.71609 28.0906 5.71118 28.17 5.70798L30.0001 5.63064L28.9184 7.01044C28.8564 7.08948 28.8406 7.11191 28.8186 7.14288C28.7314 7.2655 28.6229 7.41803 27.1382 9.26843C26.7665 9.73178 26.5809 10.3353 26.6154 10.968C26.747 13.3726 26.4309 15.5481 25.6754 17.434C24.9608 19.2181 23.8535 20.749 22.3846 21.9839C20.5668 23.5117 18.2489 24.5579 15.495 25.0928C14.1442 25.3551 12.6935 25.4867 11.192 25.4867Z" fill="#050914"/>
</g>
<defs>
<clipPath id="clip0">
<rect width="30" height="28" fill="white"/>
</clipPath>
</defs>
</svg>
